<svg xmlns="http://www.w3.org/2000/svg" viewBox="0 0 32 32" shape-rendering="crispEdges">
  <rect width="32" height="32" fill="#c9cbc4" />
  <rect y="1" width="13" height="5" fill="#9d9b7d" />
  <rect x="13" y="1" width="6" height="5" fill="#868e7c" />
  <rect x="19" y="1" width="7" height="5" fill="#d7d5cf" />
  <rect x="26" y="1" width="6" height="5" fill="#b4b8af" />
  <rect y="6" width="13" height="6" fill="#818065" />
  <rect x="13" y="6" width="6" height="6" fill="#000000" />
  <rect x="19" y="6" width="7" height="6" fill="#c8c9c4" />
  <rect x="26" y="6" width="6" height="6" fill="#7f8474" />
  <rect y="12" width="6" height="4" fill="#14191a" />
  <rect x="6" y="12" width="7" height="4" fill="#aeb09b" />
  <rect x="13" y="12" width="6" height="4" fill="#d3907f" />
  <rect x="19" y="12" width="7" height="4" fill="#c3c4c0" />
  <rect x="26" y="12" width="6" height="4" fill="#9ca18f" />
  <rect y="16" width="5" height="8" fill="#b2b3ab" />
  <rect x="5" y="16" width="5" height="8" fill="#27313a" />
  <rect x="10" y="16" width="4" height="8" fill="#212831" />
  <rect x="14" y="16" width="4" height="8" fill="#4e4268" />
  <rect x="18" y="16" width="4" height="8" fill="#2b3138" />
  <rect x="22" y="16" width="5" height="8" fill="#1d252c" />
  <rect x="27" y="16" width="5" height="8" fill="#7f7242" />
  <rect y="24" width="6" height="8" fill="#161e18" />
  <rect x="6" y="24" width="3" height="8" fill="#23292f" />
  <rect x="9" y="24" width="2" height="8" fill="#090d0d" />
  <rect x="11" y="24" width="2" height="8" fill="#384249" />
  <rect x="13" y="24" width="2" height="8" fill="#1f262e" />
  <rect x="15" y="24" width="2" height="8" fill="#232926" />
  <rect x="17" y="24" width="3" height="8" fill="#585e60" />
  <rect x="20" y="24" width="4" height="8" fill="#27211d" />
  <rect x="24" y="24" width="4" height="8" fill="#1d201f" />
  <rect x="28" y="24" width="4" height="8" fill="#101711" />

  <rect x="14" y="2" width="4" height="1" fill="#101310" />
  <rect x="13" y="3" width="6" height="1" fill="#221715" />
  <rect x="13" y="4" width="6" height="1" fill="#896248" />
  <rect x="12" y="5" width="8" height="2" fill="#c08b68" />
  <rect x="12" y="7" width="8" height="1" fill="#b48769" />
  <rect x="13" y="8" width="6" height="2" fill="#d2a98b" />
  <rect x="14" y="10" width="4" height="1" fill="#bb9476" />
  <rect x="13" y="11" width="6" height="2" fill="#b48158" />
  <rect x="12" y="13" width="8" height="1" fill="#a67a5a" />

  <rect x="11" y="6" width="1" height="3" fill="#000000" />
  <rect x="20" y="6" width="1" height="3" fill="#181411" />
  <rect x="12" y="2" width="1" height="2" fill="#0d120d" />
  <rect x="19" y="2" width="1" height="2" fill="#070b08" />

  <rect x="11" y="14" width="10" height="8" fill="#222a31" />
  <rect x="14" y="14" width="1" height="8" fill="#b7bacf" />
  <rect x="17" y="14" width="1" height="8" fill="#b7bacf" />
  <rect x="15" y="14" width="2" height="8" fill="#2e3059" />
  <rect x="10" y="22" width="12" height="3" fill="#1c2329" />

  <rect x="18" y="20" width="4" height="1" fill="#cca8a1" />
  <rect x="22" y="20" width="2" height="1" fill="#2c2623" />
  <rect x="10" y="21" width="3" height="1" fill="#d4b3a1" />
  <rect x="13" y="21" width="4" height="1" fill="#c89f8a" />
  <rect x="17" y="21" width="3" height="1" fill="#e2e1dd" />
  <rect x="20" y="21" width="2" height="1" fill="#bca198" />
  <rect x="22" y="21" width="2" height="1" fill="#111412" />
  <rect x="9" y="22" width="2" height="1" fill="#c6b3bc" />
  <rect x="11" y="22" width="1" height="1" fill="#7c92c8" />
  <rect x="12" y="22" width="1" height="1" fill="#51d6a3" />
  <rect x="13" y="22" width="1" height="1" fill="#e7d242" />
  <rect x="14" y="22" width="1" height="1" fill="#d4b29c" />
  <rect x="15" y="22" width="1" height="1" fill="#c7a28a" />
  <rect x="16" y="22" width="1" height="1" fill="#d4d3ce" />
  <rect x="17" y="22" width="1" height="1" fill="#d7d6d9" />
  <rect x="18" y="22" width="1" height="1" fill="#bcbab8" />
  <rect x="19" y="22" width="1" height="1" fill="#b28f8c" />
  <rect x="20" y="22" width="1" height="1" fill="#cfada4" />
  <rect x="21" y="22" width="1" height="1" fill="#a5836a" />
  <rect x="10" y="23" width="1" height="1" fill="#e7d525" />
  <rect x="11" y="23" width="1" height="1" fill="#625c64" />
  <rect x="12" y="23" width="1" height="1" fill="#ac8e29" />
  <rect x="13" y="23" width="1" height="1" fill="#d2bf24" />
  <rect x="14" y="23" width="1" height="1" fill="#8632b3" />
  <rect x="15" y="23" width="1" height="1" fill="#b3917a" />
  <rect x="16" y="23" width="1" height="1" fill="#7a7385" />
  <rect x="17" y="23" width="1" height="1" fill="#856686" />
  <rect x="18" y="23" width="1" height="1" fill="#e3e1e2" />
  <rect x="19" y="23" width="1" height="1" fill="#9b9699" />
  <rect x="20" y="23" width="1" height="1" fill="#b1897f" />
  <rect x="21" y="23" width="1" height="1" fill="#9a7868" />
  <rect x="22" y="23" width="1" height="1" fill="#b28b7c" />
  <rect x="23" y="23" width="1" height="1" fill="#abb1c9" />
  <rect x="8" y="24" width="1" height="1" fill="#9a9aa9" />
  <rect x="9" y="24" width="1" height="1" fill="#3060a3" />
  <rect x="10" y="24" width="1" height="1" fill="#88b940" />
  <rect x="11" y="24" width="1" height="1" fill="#5e259f" />
  <rect x="12" y="24" width="1" height="1" fill="#1b9840" />
  <rect x="13" y="24" width="1" height="1" fill="#f64c49" />
  <rect x="14" y="24" width="1" height="1" fill="#3471c5" />
  <rect x="15" y="24" width="1" height="1" fill="#d97d90" />
  <rect x="16" y="24" width="1" height="1" fill="#c7c6c1" />
  <rect x="17" y="24" width="1" height="1" fill="#6b6478" />
  <rect x="18" y="24" width="1" height="1" fill="#c7c1cc" />
  <rect x="19" y="24" width="1" height="1" fill="#b9b8b7" />
  <rect x="20" y="24" width="2" height="1" fill="#000000" />
  <rect x="22" y="24" width="1" height="1" fill="#140002" />
  <rect x="23" y="24" width="2" height="1" fill="#a7adc4" />
  <rect x="10" y="25" width="1" height="1" fill="#c4a84d" />
  <rect x="11" y="25" width="1" height="1" fill="#f3484a" />
  <rect x="12" y="25" width="1" height="1" fill="#3a312f" />
  <rect x="13" y="25" width="1" height="1" fill="#a4392d" />
  <rect x="14" y="25" width="1" height="1" fill="#728100" />
  <rect x="15" y="25" width="1" height="1" fill="#1c70c7" />
  <rect x="16" y="25" width="1" height="1" fill="#762208" />
  <rect x="17" y="25" width="1" height="1" fill="#ddd9d8" />
  <rect x="18" y="25" width="2" height="1" fill="#6f6279" />
  <rect x="10" y="26" width="1" height="1" fill="#deb8be" />
  <rect x="11" y="26" width="1" height="1" fill="#534800" />
  <rect x="12" y="26" width="1" height="1" fill="#d8cd00" />
  <rect x="13" y="26" width="1" height="1" fill="#57446b" />
  <rect x="14" y="26" width="1" height="1" fill="#26b35f" />
  <rect x="15" y="26" width="1" height="1" fill="#345ebb" />
  <rect x="16" y="26" width="1" height="1" fill="#f3e400" />
  <rect x="17" y="26" width="1" height="1" fill="#14100f" />
  <rect x="18" y="26" width="2" height="1" fill="#d8d6d6" />
  <rect x="11" y="27" width="1" height="1" fill="#1d2031" />
  <rect x="12" y="27" width="1" height="1" fill="#28bfa0" />
  <rect x="13" y="27" width="1" height="1" fill="#684c00" />
  <rect x="14" y="27" width="1" height="1" fill="#36355a" />
  <rect x="15" y="27" width="1" height="1" fill="#44278e" />
  <rect x="16" y="27" width="1" height="1" fill="#dccb14" />
  <rect x="17" y="27" width="1" height="1" fill="#722927" />
  <rect x="11" y="28" width="1" height="1" fill="#ab0910" />
  <rect x="12" y="28" width="1" height="1" fill="#1d1f33" />
  <rect x="13" y="28" width="1" height="1" fill="#c12440" />
  <rect x="14" y="28" width="1" height="1" fill="#26b297" />
  <rect x="15" y="28" width="1" height="1" fill="#7f6331" />
  <rect x="16" y="28" width="1" height="1" fill="#23172f" />
</svg>
